<?xml version="1.0" encoding="utf-8"?>
<!-- Generator: Adobe Illustrator 18.1.0, SVG Export Plug-In . SVG Version: 6.00 Build 0)  -->
<!DOCTYPE svg PUBLIC "-//W3C//DTD SVG 1.1//EN" "http://www.w3.org/Graphics/SVG/1.1/DTD/svg11.dtd">
<svg version="1.1" id="Layer_1" xmlns="http://www.w3.org/2000/svg" xmlns:xlink="http://www.w3.org/1999/xlink" x="0px" y="0px"
	 viewBox="0 0 19.8 25.1" enable-background="new 0 0 19.8 25.1" xml:space="preserve">
<g>
	<path fill-rule="evenodd" clip-rule="evenodd" fill="#262626" d="M7.1,8.6C6.1,7.8,4.7,8,4.7,8C0,9.1,0,13.7,0,13.7
		c0.3-1.6,4.8-2,4.8-2L7.1,8.6z M4.3,19.7l-2.9,5.4l4.2-5l1.7-0.9l-2.8-2L4.3,19.7z M5,16.5L8.5,19l1.1-0.8l-4.2-3.1L5,16.5z
		 M13.5,17c0,0,0.4,4.5-1.1,5.1c0,0,4.6-0.9,4.7-5.7c0,0,0-1.5-1-2.3L13.5,17z M6.2,12l-0.3,1.9l4.2,3.1l1.8-0.3c0,0,8.3-8.3,8-16.7
		C19.8,0,12.3,2,6.2,12z M13.7,11c-0.6,0.8-1.8,0.9-2.6,0.2c-0.8-0.6-0.9-1.8-0.2-2.6L12,7.2c0.6-0.8,1.8-0.9,2.6-0.2
		c0.8,0.6,0.9,1.8,0.2,2.6L13.7,11z"/>
</g>
</svg>
